<svg xmlns="http://www.w3.org/2000/svg" version="1.1" xmlns:xlink="http://www.w3.org/1999/xlink"
     xmlns:svgjs="http://svgjs.com/svgjs" width="512" height="512" x="0" y="0" viewBox="0 0 512 512"
     style="enable-background:new 0 0 512 512" xml:space="preserve" class=""><g><path d="M123.313 138.063c-5.02-4.829-5.915-5.208-12.344-7.907-4.528-1.898-10.52-4.418-18.106-8.48a139.192 139.192 0 0 0-3.633 25.32l39.286 11.191c-2.442-6.718-3.645-12.605-4.536-16.953-.21-1.047-.457-2.25-.668-3.172zM254.54 249.566l-.017-12.476-57.507-19.024a45.282 45.282 0 0 1-5.106-2.039c-6.941-3.285-12.754-6.242-17.629-8.89l-95.699-9.953-12.039 49.527c-1.527 6.297 3.238 12.363 9.719 12.363h25.593l5.344 60.207c2.586 24.352 26.25 40.68 49.934 34.457l50.297-13.21v50.75l-93.727 30.046a180.007 180.007 0 0 0-86.805 60.485L0 511.992h230.578a44.742 44.742 0 0 1-2.582-15.004v-3.652c0-.508.008-1.02.027-1.527.829-24.012 10.63-38.684 17.536-47.426-6.25-9.2-15.043-24.563-14.211-48.574.828-23.985 10.625-38.649 17.53-47.391-6.245-9.2-15.038-24.563-14.206-48.574.926-26.856 13.101-42.028 19.867-50.278zM512 511.992l-32.098-46.422c-1.023 7.903-3.058 14.223-4.523 18.77-.113.348-.234.723-.356 1.09a45.248 45.248 0 0 1-1.074 26.562zm0 0" fill="#000000" data-original="#000000" class=""></path><path
        d="M425.695 411.703c-5.386-3.601-8.09-5.406-10.273-12.07-2.277-6.953-1.106-10.594 1.027-17.203 2.66-8.243 6.305-19.532.989-35.754-5.41-16.512-15.067-22.961-22.118-27.672-5.386-3.602-8.09-5.406-10.273-12.07-2.277-6.954-1.106-10.594 1.027-17.204 2.66-8.246 6.305-19.535.989-35.757-5.012-15.293-4.708-20.836-4.586-21.84 7.14-18.305 14.511-48.988 14.652-69.45.293-42.59-16.383-83.12-46.945-114.124C319.754 17.688 279.688.46 237.304.016a12.704 12.704 0 0 0-.667-.016h-90.13c-16.612 0-30.694 4.008-41.85 11.914C94.378 19.195 87.3 29.336 84.19 41.238c-5.53 21.16 2.747 42.754 20.13 52.508 7.652 4.293 13.538 6.766 18.265 8.75 8.121 3.41 12.594 5.29 22.23 14.629 6.059 5.863 7 10.469 8.559 18.098 1.84 8.996 4.355 21.316 17.074 33.636 6.98 6.762 26.301 16.27 34.285 20.043.551.262 1.121.493 1.7.684l78.066 25.82.047 38.485c-.281 6.742-2.395 9.312-6.55 14.379-5.384 6.562-12.755 15.546-13.345 32.613-.59 17.031 6.118 26.558 11.016 33.515 3.863 5.493 5.805 8.247 5.562 15.207-.238 6.922-2.351 9.497-6.554 14.625-5.387 6.563-12.754 15.547-13.348 32.614-.59 17.031 6.117 26.558 11.016 33.515 3.867 5.493 5.804 8.25 5.562 15.211-.238 6.926-2.351 9.5-6.558 14.63-5.38 6.562-12.754 15.55-13.344 32.616-.008.172-.008.348-.008.52v3.652c0 8.285 6.715 15 14.996 15L431.54 512a15 15 0 0 0 14.258-19.672c-2.281-6.95-1.106-10.59 1.027-17.2 2.66-8.241 6.305-19.534.988-35.753-5.41-16.512-15.066-22.96-22.117-27.672zm0 0"
        fill="#000000" data-original="#000000" class=""></path></g></svg>
